<svg width="107" height="107" viewBox="0 0 107 107" fill="none" xmlns="http://www.w3.org/2000/svg">
<g filter="url(#filter0_d_115_9)">
<circle cx="53" cy="53" r="50" fill="white"/>
<circle cx="53" cy="53" r="50.5" stroke="black"/>
</g>
<path d="M44.0113 16.6162L44.0113 16.6131C44.0103 16.4648 44.0392 16.3179 44.0962 16.1811C44.1531 16.0442 44.237 15.9202 44.3428 15.8164C44.4487 15.7126 44.5743 15.6312 44.7122 15.5769C44.8495 15.5228 44.9963 15.4968 45.1438 15.5003C69.7801 16.3478 89.6528 36.2214 90.4991 60.8581L90.4991 60.8588C90.5205 61.4586 90.023 61.9883 89.3831 61.9883H83.1106C82.4997 61.9883 82.0266 61.5152 82.0266 60.9043V60.4043H81.9414C80.9423 40.7905 65.209 25.0571 45.5952 24.058V23.9727H45.0952C44.4844 23.9727 44.0113 23.4997 44.0113 22.8888L44.0113 16.6162ZM66.1869 60.4043H66.055C65.1094 49.5359 56.4636 40.89 45.5952 39.9445V39.8126H45.0952C44.4844 39.8126 44.0113 39.3395 44.0113 38.7286V32.4581C44.0126 32.3101 44.0431 32.1639 44.1009 32.0277C44.1589 31.891 44.2434 31.767 44.3495 31.663C44.4555 31.559 44.5811 31.4769 44.7189 31.4216C44.8539 31.3674 44.998 31.3398 45.1434 31.3402C61.0377 32.1874 73.8156 44.9673 74.6595 60.8626C74.6783 61.4545 74.1568 61.9883 73.5434 61.9883H67.2709C66.66 61.9883 66.1869 61.5152 66.1869 60.9043V60.4043ZM15.4998 35.5606C15.4998 34.9497 15.9728 34.4766 16.5837 34.4766H26.0876C26.6984 34.4766 27.1715 34.9497 27.1715 35.5606V70.4082C27.1715 71.5139 27.3893 72.6088 27.8125 73.6304C28.2356 74.6519 28.8558 75.5801 29.6377 76.362C30.4195 77.1439 31.3477 77.7641 32.3693 78.1872C33.3908 78.6104 34.4857 78.8281 35.5914 78.8281C37.8245 78.8281 39.9661 77.941 41.5451 76.362C43.1242 74.783 44.0113 72.6413 44.0113 70.4082C44.0113 68.1751 43.1242 66.0335 41.5451 64.4545C39.9661 62.8754 37.8245 61.9883 35.5914 61.9883C34.9805 61.9883 34.5074 61.5152 34.5074 60.9043V51.4004C34.5074 50.7896 34.9805 50.3165 35.5914 50.3165C46.6565 50.3165 55.683 59.3431 55.683 70.4082C55.683 81.4734 46.6565 90.5 35.5914 90.5C24.5263 90.5 15.4998 81.4734 15.4998 70.4082V35.5606Z" fill="#1565C0" stroke="black"/>
<defs>
<filter id="filter0_d_115_9" x="0" y="0" width="107" height="107" filterUnits="userSpaceOnUse" color-interpolation-filters="sRGB">
<feFlood flood-opacity="0" result="BackgroundImageFix"/>
<feColorMatrix in="SourceAlpha" type="matrix" values="0 0 0 0 0 0 0 0 0 0 0 0 0 0 0 0 0 0 127 0" result="hardAlpha"/>
<feMorphology radius="0.5" operator="dilate" in="SourceAlpha" result="effect1_dropShadow_115_9"/>
<feOffset dx="0.5" dy="0.5"/>
<feGaussianBlur stdDeviation="1"/>
<feComposite in2="hardAlpha" operator="out"/>
<feColorMatrix type="matrix" values="0 0 0 0 0 0 0 0 0 0 0 0 0 0 0 0 0 0 0.25 0"/>
<feBlend mode="normal" in2="BackgroundImageFix" result="effect1_dropShadow_115_9"/>
<feBlend mode="normal" in="SourceGraphic" in2="effect1_dropShadow_115_9" result="shape"/>
</filter>
</defs>
</svg>
