<svg width="72" height="72" viewBox="0 0 72 72" fill="none" xmlns="http://www.w3.org/2000/svg">
<g filter="url(#filter0_d_115_9)">
<circle cx="35.5" cy="35.5" r="32.5" fill="white"/>
<circle cx="35.5" cy="35.5" r="33" stroke="black"/>
</g>
<path d="M54.5423 40.1378H54.4776C53.7469 27.4319 43.5677 17.2526 30.8619 16.5219V16.4573H30.3619C30.0614 16.4573 29.8323 16.2281 29.8323 15.9277L29.8323 11.8505L29.8323 11.8474C29.8318 11.7745 29.846 11.7023 29.874 11.635C29.902 11.5677 29.9433 11.5067 29.9953 11.4556C30.0474 11.4046 30.1092 11.3645 30.177 11.3378C30.2443 11.3113 30.3161 11.2985 30.3884 11.3001C46.3096 11.8484 59.1525 24.6922 59.6995 40.6138L59.6995 40.6145C59.7098 40.9038 59.4673 41.1674 59.149 41.1674H55.0718C54.7714 41.1674 54.5423 40.9382 54.5423 40.6378V40.1378ZM44.2464 40.1378H44.1453C43.4583 33.1171 37.8825 27.5413 30.8619 26.8543V26.7532H30.3619C30.0614 26.7532 29.8323 26.524 29.8323 26.2236V22.1486C29.8331 22.0757 29.8481 22.0036 29.8766 21.9364C29.9054 21.8687 29.9472 21.8074 29.9997 21.7559C30.0521 21.7044 30.1143 21.6638 30.1825 21.6364C30.248 21.6101 30.3179 21.5964 30.3885 21.5962C40.6277 22.1443 48.8591 30.3778 49.4038 40.618C49.4116 40.8996 49.1562 41.1674 48.8532 41.1674H44.776C44.4756 41.1674 44.2464 40.9382 44.2464 40.6378V40.1378ZM11.2998 24.1644C11.2998 23.864 11.529 23.6348 11.8294 23.6348H18.0069C18.3073 23.6348 18.5365 23.864 18.5365 24.1644V46.8154C18.5365 47.557 18.6825 48.2915 18.9664 48.9767C19.2502 49.662 19.6662 50.2846 20.1907 50.8091C20.7152 51.3335 21.3378 51.7495 22.023 52.0334C22.7082 52.3172 23.4427 52.4633 24.1844 52.4633C25.6823 52.4633 27.1189 51.8682 28.178 50.8091C29.2372 49.7499 29.8323 48.3133 29.8323 46.8154C29.8323 45.3174 29.2372 43.8808 28.178 42.8217C27.1189 41.7625 25.6823 41.1674 24.1844 41.1674C23.884 41.1674 23.6548 40.9382 23.6548 40.6378V34.4603C23.6548 34.1599 23.884 33.9307 24.1844 33.9307C31.28 33.9307 37.0689 39.7196 37.0689 46.8154C37.0689 53.9111 31.28 59.7 24.1844 59.7C17.0887 59.7 11.2998 53.9111 11.2998 46.8154V24.1644Z" fill="#1565C0" stroke="black"/>
<defs>
<filter id="filter0_d_115_9" x="0" y="0" width="72" height="72" filterUnits="userSpaceOnUse" color-interpolation-filters="sRGB">
<feFlood flood-opacity="0" result="BackgroundImageFix"/>
<feColorMatrix in="SourceAlpha" type="matrix" values="0 0 0 0 0 0 0 0 0 0 0 0 0 0 0 0 0 0 127 0" result="hardAlpha"/>
<feMorphology radius="0.5" operator="dilate" in="SourceAlpha" result="effect1_dropShadow_115_9"/>
<feOffset dx="0.5" dy="0.5"/>
<feGaussianBlur stdDeviation="1"/>
<feComposite in2="hardAlpha" operator="out"/>
<feColorMatrix type="matrix" values="0 0 0 0 0 0 0 0 0 0 0 0 0 0 0 0 0 0 0.25 0"/>
<feBlend mode="normal" in2="BackgroundImageFix" result="effect1_dropShadow_115_9"/>
<feBlend mode="normal" in="SourceGraphic" in2="effect1_dropShadow_115_9" result="shape"/>
</filter>
</defs>
</svg>
