<svg width="209" height="209" viewBox="0 0 209 209" fill="none" xmlns="http://www.w3.org/2000/svg">
<g filter="url(#filter0_d_115_9)">
<circle cx="104" cy="104" r="100" fill="white"/>
<circle cx="104" cy="104" r="100.75" stroke="black" stroke-width="1.5"/>
</g>
<path d="M162.053 118.809H161.883C159.885 79.581 128.418 48.1142 89.1905 46.1159V45.9455H88.1905C86.9687 45.9455 86.0225 44.9993 86.0225 43.7775L86.0225 31.2324L86.0225 31.2261C86.0207 30.9297 86.0784 30.6359 86.1923 30.3622C86.3063 30.0885 86.474 29.8404 86.6857 29.6329C86.8973 29.4253 87.1486 29.2623 87.4244 29.1537C87.6991 29.0456 87.9925 28.9936 88.2876 29.0006C137.56 30.6957 177.306 70.4428 178.998 119.716L178.998 119.718C179.041 120.917 178.046 121.977 176.766 121.977H164.221C162.999 121.977 162.053 121.03 162.053 119.809V118.809ZM130.374 118.809H130.11C128.219 97.0719 110.927 79.7801 89.1905 77.889V77.6251H88.1905C86.9687 77.6251 86.0225 76.6789 86.0225 75.4572V62.9162C86.0253 62.6203 86.0862 62.3278 86.2018 62.0554C86.3179 61.7819 86.4868 61.5341 86.699 61.326C86.9111 61.118 87.1622 60.9539 87.4379 60.8431C87.7077 60.7347 87.996 60.6795 88.2867 60.6805C120.075 62.3748 145.631 87.9347 147.319 119.725C147.357 120.909 146.314 121.977 145.087 121.977H132.542C131.32 121.977 130.374 121.03 130.374 119.809V118.809ZM28.9995 69.1212C28.9995 67.8995 29.9457 66.9533 31.1675 66.9533H50.1751C51.3969 66.9533 52.3431 67.8995 52.3431 69.1212V138.816C52.3431 141.028 52.7786 143.218 53.6249 145.261C54.4712 147.304 55.7116 149.16 57.2753 150.724C58.839 152.288 60.6954 153.528 62.7385 154.374C64.7816 155.221 66.9714 155.656 69.1828 155.656C73.649 155.656 77.9322 153.882 81.0903 150.724C84.2483 147.566 86.0225 143.283 86.0225 138.816C86.0225 134.35 84.2483 130.067 81.0903 126.909C77.9322 123.751 73.649 121.977 69.1828 121.977C67.961 121.977 67.0149 121.03 67.0149 119.809V100.801C67.0149 99.5791 67.961 98.6329 69.1828 98.6329C91.313 98.6329 109.366 116.686 109.366 138.816C109.366 160.947 91.313 179 69.1828 179C47.0526 179 28.9995 160.947 28.9995 138.816V69.1212Z" fill="#1565C0" stroke="black" stroke-width="2"/>
<defs>
<filter id="filter0_d_115_9" x="0.5" y="0.5" width="208" height="208" filterUnits="userSpaceOnUse" color-interpolation-filters="sRGB">
<feFlood flood-opacity="0" result="BackgroundImageFix"/>
<feColorMatrix in="SourceAlpha" type="matrix" values="0 0 0 0 0 0 0 0 0 0 0 0 0 0 0 0 0 0 127 0" result="hardAlpha"/>
<feMorphology radius="0.5" operator="dilate" in="SourceAlpha" result="effect1_dropShadow_115_9"/>
<feOffset dx="0.5" dy="0.5"/>
<feGaussianBlur stdDeviation="1"/>
<feComposite in2="hardAlpha" operator="out"/>
<feColorMatrix type="matrix" values="0 0 0 0 0 0 0 0 0 0 0 0 0 0 0 0 0 0 0.25 0"/>
<feBlend mode="normal" in2="BackgroundImageFix" result="effect1_dropShadow_115_9"/>
<feBlend mode="normal" in="SourceGraphic" in2="effect1_dropShadow_115_9" result="shape"/>
</filter>
</defs>
</svg>
